<?xml version="1.0" standalone="no"?>
<!DOCTYPE svg PUBLIC "-//W3C//DTD SVG 20010904//EN"
 "http://www.w3.org/TR/2001/REC-SVG-20010904/DTD/svg10.dtd">
<svg version="1.0" xmlns="http://www.w3.org/2000/svg"
 width="512.000000pt" height="512.000000pt" viewBox="0 0 512.000000 512.000000"
 preserveAspectRatio="xMidYMid meet">
<metadata>
Created by potrace 1.11, written by Peter Selinger 2001-2013
</metadata>
<g transform="translate(0.000000,512.000000) scale(0.100000,-0.100000)"
fill="#000000" stroke="none">
<path d="M2215 4269 c-40 -9 -60 -17 -124 -48 -45 -21 -128 -96 -146 -131 -22
-42 -45 -112 -45 -137 0 -15 -17 -35 -52 -61 -29 -22 -78 -64 -109 -94 l-55
-55 -81 -6 c-106 -8 -207 -51 -244 -105 -43 -61 -54 -122 -54 -287 1 -147 1
-151 31 -215 41 -86 101 -150 142 -150 17 0 32 -6 35 -12 3 -11 -17 -52 -33
-68 -31 -30 -60 -143 -64 -247 -2 -64 -9 -112 -20 -137 -17 -38 -17 -40 8 -87
14 -27 22 -49 18 -49 -4 0 -17 -15 -29 -33 -52 -75 -11 -195 71 -213 22 -4 66
-41 148 -123 65 -64 118 -119 118 -123 0 -5 -60 -68 -132 -141 -73 -72 -163
-170 -199 -217 -66 -85 -179 -262 -179 -279 0 -5 -4 -11 -8 -13 -14 -6 -98
-190 -131 -286 -36 -103 -70 -250 -71 -297 0 -17 9 -48 20 -70 24 -47 26 -150
5 -240 -8 -33 -19 -82 -25 -110 -6 -27 -15 -59 -20 -70 -5 -11 -11 -41 -14
-67 -3 -27 -8 -59 -12 -73 -6 -24 -4 -25 35 -25 37 0 41 3 41 24 0 37 20 129
54 256 8 30 20 85 26 122 l12 66 91 -48 c51 -26 135 -67 187 -90 52 -23 123
-55 156 -71 34 -16 67 -29 73 -29 15 0 14 -18 -4 -120 -20 -114 -21 -110 24
-110 39 0 39 0 50 50 6 28 11 61 11 72 0 12 4 35 10 52 5 17 28 108 51 201 69
285 66 465 -12 767 -16 61 -70 62 -82 0 -3 -15 3 -62 14 -104 32 -128 49 -230
49 -295 0 -60 -30 -234 -48 -283 -5 -14 -10 -28 -10 -33 0 -4 -3 -25 -7 -46
-6 -38 -8 -39 -48 -39 -42 -1 -167 46 -287 108 -30 16 -80 40 -110 53 -66 30
-125 89 -138 138 -13 47 6 141 58 299 35 104 123 292 146 311 7 6 18 26 24 45
6 19 15 34 20 34 5 0 25 28 46 63 41 70 103 146 184 227 l55 54 7 -66 c9 -97
67 -194 151 -250 34 -24 50 -28 107 -28 76 0 94 -12 92 -60 0 -16 4 -32 9 -35
5 -4 9 -13 9 -22 0 -52 207 -163 304 -163 17 0 49 11 71 23 48 28 115 26 115
-2 0 -28 37 -78 69 -92 17 -8 31 -17 31 -20 0 -18 86 -31 176 -27 114 4 168
25 194 73 13 23 24 31 51 33 29 2 37 -2 50 -27 30 -52 77 -66 227 -66 74 1
136 5 140 10 4 6 21 17 37 25 32 16 64 48 65 65 0 6 15 19 34 29 31 16 36 17
58 2 100 -65 382 80 403 208 10 57 30 76 78 76 28 0 56 10 91 32 113 70 187
188 191 305 2 36 7 68 11 73 15 14 324 -377 324 -409 0 -5 6 -16 13 -23 6 -7
19 -26 27 -43 8 -16 22 -41 30 -55 9 -14 27 -54 39 -90 12 -36 27 -72 31 -82
5 -9 18 -52 29 -96 25 -103 18 -133 -52 -206 -48 -49 -140 -122 -177 -139 -8
-4 -44 -24 -80 -43 -161 -90 -312 -149 -362 -142 -25 3 -25 4 -69 198 -26 112
-30 149 -26 219 3 46 9 86 13 90 15 10 54 134 54 169 0 25 -6 35 -25 44 -21 9
-29 9 -40 -3 -34 -35 -95 -260 -95 -354 0 -50 16 -131 50 -255 24 -88 41 -157
50 -205 5 -22 15 -71 24 -110 9 -38 24 -107 32 -152 l16 -83 40 0 40 0 -7 43
c-3 23 -18 96 -31 161 -14 66 -22 126 -20 133 3 7 16 13 29 13 12 0 47 9 77
19 74 27 313 146 375 187 27 19 53 34 57 34 4 0 15 -15 24 -33 18 -32 42 -311
43 -484 l1 -73 34 0 c33 0 35 1 31 32 -2 18 -7 127 -10 243 -5 191 -7 217 -31
291 l-27 81 47 43 c96 88 113 137 91 260 -35 203 -134 402 -332 668 -160 216
-233 301 -281 329 -26 15 -49 28 -51 29 -2 2 12 25 31 51 38 53 98 168 98 190
0 7 4 21 10 31 27 49 41 140 41 264 0 123 -21 281 -42 320 -5 10 -9 24 -9 32
0 25 -79 221 -131 328 -90 182 -149 251 -248 288 -51 20 -54 24 -71 100 -32
139 -188 385 -277 437 -27 15 -75 46 -107 70 -39 28 -77 46 -114 54 -31 6 -74
18 -96 26 -77 28 -171 43 -269 43 -104 0 -142 -12 -253 -83 l-42 -26 -18 20
c-27 30 -125 85 -186 105 -29 9 -62 21 -73 25 -64 25 -261 36 -340 18z m270
-80 c111 -23 230 -73 270 -113 l26 -26 -26 -43 c-14 -23 -38 -66 -52 -94 -16
-33 -33 -53 -43 -53 -9 0 -61 22 -116 48 -123 61 -176 78 -283 91 -116 15
-169 14 -225 -5 -26 -9 -50 -13 -53 -10 -11 11 36 91 73 125 50 46 131 81 206
88 34 3 65 7 67 9 10 9 62 3 156 -17z m830 -70 c109 -23 217 -70 342 -149 43
-28 116 -107 162 -175 66 -101 98 -190 122 -343 17 -111 57 -135 83 -50 5 16
8 16 41 -3 99 -59 195 -223 292 -501 49 -143 68 -251 67 -393 0 -132 -21 -232
-71 -335 -35 -70 -118 -183 -176 -237 -48 -45 -211 -143 -238 -143 -9 0 -32
-6 -50 -14 -57 -24 -239 -62 -454 -96 -149 -23 -323 -32 -560 -27 -254 6 -327
12 -470 41 -351 69 -509 145 -702 335 -40 40 -73 75 -73 80 0 5 160 12 355 16
349 7 653 1 810 -16 44 -5 148 -15 230 -24 83 -8 188 -19 235 -25 47 -5 121
-10 164 -10 91 0 136 21 158 75 19 43 15 134 -6 174 -50 94 -167 181 -279 208
-185 44 -210 45 -747 54 -289 5 -547 11 -575 14 -267 31 -399 45 -438 45 -37
0 -47 4 -52 20 -14 45 36 205 81 259 11 13 36 31 57 42 35 19 51 19 240 13
l202 -7 50 30 c58 34 75 63 111 191 2 7 20 12 42 12 39 0 40 -1 61 -59 11 -32
21 -72 21 -90 0 -42 59 -103 125 -129 74 -29 317 -70 510 -87 139 -11 351 31
408 82 11 10 34 50 52 89 l33 72 78 25 c82 26 188 57 261 76 66 18 73 30 73
129 0 48 -4 93 -9 101 -15 23 -172 9 -248 -23 -85 -35 -104 -34 -125 10 -23
45 -23 53 2 47 23 -6 50 12 50 34 0 21 -145 163 -167 163 -10 0 -31 7 -47 15
-15 8 -37 15 -47 15 -11 0 -19 4 -19 9 0 5 -15 13 -32 17 -18 3 -58 17 -88 30
-83 34 -156 52 -255 64 -49 5 -94 10 -99 10 -5 0 -3 7 4 15 7 8 19 15 27 15 7
0 31 9 53 20 55 28 176 27 315 -4 21 -4 91 -35 213 -93 41 -19 90 -52 110 -74
28 -30 45 -39 70 -39 27 0 32 4 32 23 0 30 -12 45 -90 104 -188 143 -512 222
-670 162 -30 -11 -60 -25 -65 -29 -6 -5 -17 -5 -25 0 -8 6 -10 10 -4 10 5 0
20 19 31 43 48 97 148 179 241 198 45 9 198 2 267 -12z m-1034 -204 c57 -8
133 -27 169 -42 84 -34 180 -91 180 -107 0 -7 -38 -32 -84 -55 -93 -47 -93
-47 -191 0 -164 77 -232 94 -447 108 -36 3 57 62 152 97 47 17 97 17 221 -1z
m-83 -221 c87 -28 113 -40 159 -69 38 -23 39 -31 13 -63 l-18 -22 -51 31 c-28
18 -53 40 -56 50 -8 24 -64 57 -133 79 -51 16 -54 18 -24 19 19 1 68 -11 110
-25z m782 -17 c73 -15 154 -41 235 -76 22 -10 71 -28 108 -41 41 -15 82 -37
103 -58 39 -38 44 -55 12 -43 -13 4 -57 18 -98 31 -41 12 -84 26 -95 31 -11 4
-92 28 -180 53 -168 46 -262 66 -357 73 -53 4 -77 19 -45 27 6 2 26 8 42 14
39 14 179 8 275 -11z m-1313 -74 c38 -38 116 -126 173 -198 56 -71 118 -146
136 -165 48 -51 123 -171 117 -186 -6 -16 -62 -29 -72 -18 -4 5 -32 47 -63 94
-31 47 -64 95 -74 107 -11 12 -29 37 -42 55 -84 123 -184 252 -234 302 -45 44
-56 61 -46 67 24 16 34 10 105 -58z m316 25 c8 -13 32 -41 52 -63 50 -53 92
-116 100 -147 4 -14 17 -30 31 -37 13 -6 24 -17 24 -26 0 -26 -29 -16 -45 15
-9 17 -20 30 -25 30 -6 0 -10 6 -10 14 0 8 -4 16 -8 18 -5 2 -28 30 -52 63
-24 33 -56 75 -72 93 -27 32 -37 62 -19 62 5 0 16 -10 24 -22z m870 -131 c32
-34 70 -80 85 -102 14 -22 50 -64 78 -92 29 -29 70 -74 91 -100 21 -26 48 -59
61 -73 13 -14 48 -60 79 -103 55 -77 62 -107 25 -107 -21 0 -124 95 -163 150
-13 19 -67 79 -120 135 -53 55 -105 111 -117 125 -77 95 -182 231 -182 236 0
4 24 4 53 0 48 -6 57 -12 110 -69z m-525 -67 c3 -28 1 -30 -32 -30 l-36 0 0
51 0 51 33 -21 c23 -14 33 -29 35 -51z m871 29 c18 -6 31 -18 31 -28 0 -9 28
-46 63 -81 118 -123 175 -215 131 -215 -7 0 -68 68 -138 152 -69 83 -130 154
-136 158 -14 9 -12 25 4 25 7 0 27 -5 45 -11z m-1379 -954 c163 -23 205 -24
790 -33 382 -6 531 -11 547 -20 12 -7 32 -12 45 -12 13 0 32 -7 42 -15 11 -8
32 -15 48 -15 15 0 28 -4 28 -8 0 -4 20 -13 44 -21 24 -7 56 -26 70 -42 14
-16 31 -29 37 -29 5 0 19 -19 29 -43 16 -35 17 -50 8 -84 -14 -59 -13 -58
-273 -38 -22 1 -67 7 -100 13 -58 10 -136 19 -385 44 -66 7 -360 13 -695 14
-534 3 -581 5 -592 21 -28 37 -15 59 54 94 47 24 138 26 160 3 10 -10 18 -12
22 -5 6 10 216 -1 252 -13 25 -9 436 -28 779 -36 321 -8 520 -24 520 -42 0
-11 31 -10 69 3 28 10 32 15 29 43 -3 27 -9 33 -48 46 -25 8 -47 18 -50 22 -7
9 -118 16 -380 22 -427 11 -753 26 -865 41 -60 8 -136 14 -167 15 -31 0 -79 4
-105 9 -26 5 -96 15 -155 22 -60 6 -108 16 -108 21 0 6 10 19 23 29 19 18 33
19 117 15 52 -3 147 -12 210 -21z m2440 -615 c0 -5 -5 -10 -11 -10 -5 0 -7 5
-4 10 3 6 8 10 11 10 2 0 4 -4 4 -10z m110 -13 c0 -1 -18 -39 -40 -84 -34 -70
-61 -103 -84 -103 -11 0 -5 45 8 68 23 43 116 138 116 119z m-2551 -79 c-27
-10 -43 0 -29 17 9 11 16 12 31 2 18 -11 18 -12 -2 -19z m-65 -78 c40 -61 13
-84 -37 -32 -26 27 -34 52 -20 65 14 15 32 5 57 -33z m2274 -7 c-83 -90 -83
-89 -78 -154 1 -18 -9 -37 -29 -58 -28 -29 -36 -31 -97 -31 -38 0 -81 -7 -102
-16 -21 -9 -52 -22 -70 -30 -18 -8 -35 -21 -38 -29 -4 -8 -11 -15 -17 -15 -10
0 -67 -58 -67 -69 0 -3 -4 -12 -9 -19 -6 -11 -16 -8 -46 12 -34 24 -47 26
-139 26 -65 0 -110 -5 -127 -14 -14 -7 -42 -16 -62 -20 -21 -4 -46 -17 -57
-28 -30 -32 -90 -32 -154 0 -46 23 -65 26 -192 30 -88 3 -148 0 -160 -6 -28
-15 -89 15 -148 72 -26 25 -53 46 -59 46 -6 0 -18 6 -26 14 -9 8 -43 28 -76
46 -50 27 -66 31 -104 26 -24 -3 -50 -11 -58 -17 -20 -17 -28 -3 -14 25 17 30
-7 105 -51 159 -33 42 -32 55 4 36 12 -7 34 -15 47 -17 14 -2 32 -7 40 -11 23
-12 236 -63 316 -76 181 -29 635 -38 840 -17 217 22 292 32 360 47 39 9 103
23 143 31 40 7 81 18 91 23 10 6 20 9 22 7 2 -2 31 9 64 24 76 36 85 36 53 3z
m-2100 -27 c18 -17 49 -54 68 -83 52 -78 44 -92 -26 -48 -46 29 -63 31 -84 9
-19 -18 -21 -82 -4 -119 6 -14 8 -28 5 -31 -10 -10 -56 5 -75 24 -64 68 -107
133 -95 146 4 3 19 6 34 6 15 0 35 3 44 6 18 7 45 66 45 99 0 12 3 24 6 27 11
12 50 -6 82 -36z m2237 5 c9 -41 29 -55 84 -58 25 -1 50 -2 54 -2 12 -1 -3
-41 -27 -74 -26 -35 -124 -112 -133 -103 -3 3 -1 17 5 31 16 35 15 70 -3 85
-8 7 -35 11 -66 8 -36 -2 -54 1 -56 10 -5 12 111 132 127 132 5 0 11 -13 15
-29z m-87 -203 c-8 -13 -21 -33 -29 -46 -16 -27 -141 -112 -164 -112 -29 0
-15 23 47 79 83 76 118 101 141 101 18 0 18 -2 5 -22z m-2078 -38 c3 -3 29
-21 58 -39 47 -30 68 -61 42 -61 -36 0 -160 92 -160 118 0 26 26 18 60 -18z
m252 -53 c59 -31 108 -68 108 -82 0 -6 -10 -19 -21 -29 -20 -16 -21 -25 -16
-88 l6 -70 -43 4 c-91 11 -222 94 -214 136 2 12 15 18 40 20 46 4 62 23 60 73
-3 67 10 73 80 36z m1558 -44 c0 -21 4 -43 8 -49 13 -19 50 -34 86 -34 20 0
36 -4 36 -9 0 -16 -59 -60 -113 -85 -99 -46 -156 -43 -117 6 39 50 18 101 -48
114 -38 8 -39 10 -9 35 32 29 98 59 130 59 25 0 27 -3 27 -37z m-395 -112 c0
-8 -13 -22 -30 -31 -22 -12 -31 -25 -33 -50 -6 -60 4 -78 48 -85 47 -8 54 -32
13 -41 -16 -3 -35 -8 -43 -11 -27 -9 -191 -3 -211 8 -22 12 -25 32 -5 48 23
19 28 60 11 93 -20 42 -19 47 13 59 78 30 237 37 237 10z m-889 -26 c24 -14
44 -33 44 -42 0 -13 -9 -15 -62 -10 -85 8 -128 24 -128 47 0 46 71 49 146 5z
m1124 4 c0 -14 -90 -66 -137 -79 -23 -7 -54 -9 -70 -5 l-28 7 31 12 c16 6 45
22 63 35 55 40 141 58 141 30z m-852 -2 c7 -8 7 -18 2 -27 -6 -8 -10 -30 -10
-49 0 -36 14 -53 68 -77 68 -30 19 -56 -106 -55 -68 0 -91 5 -125 23 -43 24
-65 68 -33 68 27 0 47 31 46 69 -1 20 -2 42 -1 49 1 17 145 17 159 -1z m303
-64 c25 -25 -3 -33 -121 -33 -91 0 -119 3 -123 14 -12 30 16 38 125 34 63 -2
112 -8 119 -15z"/>
<path d="M3507 2663 c-14 -13 -7 -54 11 -60 52 -17 111 -51 139 -79 46 -44 83
-128 83 -186 0 -59 7 -78 30 -78 34 0 43 26 37 101 -8 89 -42 165 -102 223
-58 57 -174 103 -198 79z"/>
<path d="M3350 2350 c0 -5 5 -10 11 -10 5 0 7 5 4 10 -3 6 -8 10 -11 10 -2 0
-4 -4 -4 -10z"/>
<path d="M2940 174 c-8 -2 -46 -14 -85 -25 -90 -27 -117 -41 -135 -72 -12 -22
-12 -29 0 -51 13 -25 35 -34 42 -17 7 19 108 53 203 68 111 17 162 11 214 -28
33 -24 74 -22 79 4 8 39 -9 67 -55 94 -42 25 -59 28 -148 30 -55 1 -107 0
-115 -3z"/>
</g>
</svg>
